<mxfile host="Electron" agent="Mozilla/5.0 (Macintosh; Intel Mac OS X 10_15_7) AppleWebKit/537.36 (KHTML, like Gecko) draw.io/28.2.8 Chrome/140.0.7339.240 Electron/38.4.0 Safari/537.36" version="28.2.8">
  <diagram name="Page-1" id="4fXCyAqEmqXsdkezFTRa">
    <mxGraphModel dx="928" dy="1430" grid="1" gridSize="10" guides="1" tooltips="1" connect="1" arrows="1" fold="1" page="0" pageScale="1" pageWidth="827" pageHeight="1169" math="0" shadow="0">
      <root>
        <mxCell id="0" />
        <mxCell id="1" parent="0" />
        <mxCell id="rXAoFdYzU-Vzjy6jFX8J-11" style="edgeStyle=none;curved=0;rounded=0;orthogonalLoop=1;jettySize=auto;html=1;exitX=0.5;exitY=1;exitDx=0;exitDy=0;entryX=0.5;entryY=0;entryDx=0;entryDy=0;fontSize=12;startSize=8;endSize=8;dashed=1;" parent="1" source="rXAoFdYzU-Vzjy6jFX8J-1" target="rXAoFdYzU-Vzjy6jFX8J-2" edge="1">
          <mxGeometry relative="1" as="geometry">
            <Array as="points">
              <mxPoint x="180" y="40" />
              <mxPoint x="-60" y="40" />
            </Array>
          </mxGeometry>
        </mxCell>
        <mxCell id="rXAoFdYzU-Vzjy6jFX8J-12" style="edgeStyle=none;curved=1;rounded=0;orthogonalLoop=1;jettySize=auto;html=1;exitX=0.5;exitY=1;exitDx=0;exitDy=0;entryX=0.5;entryY=0;entryDx=0;entryDy=0;fontSize=12;startSize=8;endSize=8;dashed=1;" parent="1" source="rXAoFdYzU-Vzjy6jFX8J-1" target="rXAoFdYzU-Vzjy6jFX8J-3" edge="1">
          <mxGeometry relative="1" as="geometry" />
        </mxCell>
        <mxCell id="rXAoFdYzU-Vzjy6jFX8J-13" style="edgeStyle=none;curved=0;rounded=0;orthogonalLoop=1;jettySize=auto;html=1;exitX=0.5;exitY=1;exitDx=0;exitDy=0;entryX=0.5;entryY=0;entryDx=0;entryDy=0;fontSize=12;startSize=8;endSize=8;dashed=1;" parent="1" source="rXAoFdYzU-Vzjy6jFX8J-1" target="rXAoFdYzU-Vzjy6jFX8J-4" edge="1">
          <mxGeometry relative="1" as="geometry">
            <Array as="points">
              <mxPoint x="180" y="40" />
              <mxPoint x="422" y="40" />
            </Array>
          </mxGeometry>
        </mxCell>
        <mxCell id="rXAoFdYzU-Vzjy6jFX8J-14" value="runs" style="edgeLabel;html=1;align=center;verticalAlign=middle;resizable=0;points=[];fontSize=12;" parent="rXAoFdYzU-Vzjy6jFX8J-13" vertex="1" connectable="0">
          <mxGeometry x="-0.8105" relative="1" as="geometry">
            <mxPoint y="-7" as="offset" />
          </mxGeometry>
        </mxCell>
        <mxCell id="rXAoFdYzU-Vzjy6jFX8J-1" value="cmd.Run" style="rounded=1;whiteSpace=wrap;html=1;fillColor=#f5f5f5;fontColor=#333333;strokeColor=#666666;" parent="1" vertex="1">
          <mxGeometry x="120" y="-64" width="120" height="60" as="geometry" />
        </mxCell>
        <mxCell id="rXAoFdYzU-Vzjy6jFX8J-17" style="edgeStyle=none;curved=1;rounded=0;orthogonalLoop=1;jettySize=auto;html=1;exitX=1;exitY=0.5;exitDx=0;exitDy=0;entryX=0;entryY=0.5;entryDx=0;entryDy=0;fontSize=12;startSize=8;endSize=8;" parent="1" source="rXAoFdYzU-Vzjy6jFX8J-2" target="rXAoFdYzU-Vzjy6jFX8J-3" edge="1">
          <mxGeometry relative="1" as="geometry" />
        </mxCell>
        <mxCell id="rXAoFdYzU-Vzjy6jFX8J-18" value="sql.File" style="edgeLabel;html=1;align=center;verticalAlign=middle;resizable=0;points=[];fontSize=12;" parent="rXAoFdYzU-Vzjy6jFX8J-17" vertex="1" connectable="0">
          <mxGeometry x="-0.125" y="2" relative="1" as="geometry">
            <mxPoint as="offset" />
          </mxGeometry>
        </mxCell>
        <mxCell id="rXAoFdYzU-Vzjy6jFX8J-2" value="Observer" style="rounded=1;whiteSpace=wrap;html=1;fillColor=#fff2cc;strokeColor=#d6b656;" parent="1" vertex="1">
          <mxGeometry x="-120" y="81" width="120" height="60" as="geometry" />
        </mxCell>
        <mxCell id="rXAoFdYzU-Vzjy6jFX8J-16" style="edgeStyle=none;curved=1;rounded=0;orthogonalLoop=1;jettySize=auto;html=1;exitX=1;exitY=0.5;exitDx=0;exitDy=0;entryX=0;entryY=0.5;entryDx=0;entryDy=0;fontSize=12;startSize=8;endSize=8;" parent="1" source="rXAoFdYzU-Vzjy6jFX8J-3" target="rXAoFdYzU-Vzjy6jFX8J-4" edge="1">
          <mxGeometry relative="1" as="geometry" />
        </mxCell>
        <mxCell id="rXAoFdYzU-Vzjy6jFX8J-20" value="sql.Statement" style="edgeLabel;html=1;align=center;verticalAlign=middle;resizable=0;points=[];fontSize=12;" parent="rXAoFdYzU-Vzjy6jFX8J-16" vertex="1" connectable="0">
          <mxGeometry x="-0.0633" y="1" relative="1" as="geometry">
            <mxPoint as="offset" />
          </mxGeometry>
        </mxCell>
        <mxCell id="rXAoFdYzU-Vzjy6jFX8J-3" value="Processor" style="rounded=1;whiteSpace=wrap;html=1;fillColor=#dae8fc;strokeColor=#6c8ebf;" parent="1" vertex="1">
          <mxGeometry x="120" y="81" width="120" height="60" as="geometry" />
        </mxCell>
        <mxCell id="ynjoZDTBO19sQLlADJZk-1" style="edgeStyle=none;curved=0;rounded=0;orthogonalLoop=1;jettySize=auto;html=1;exitX=1;exitY=0.5;exitDx=0;exitDy=0;entryX=0;entryY=0.5;entryDx=0;entryDy=0;fontSize=12;startSize=8;endSize=8;" edge="1" parent="1" source="rXAoFdYzU-Vzjy6jFX8J-4" target="rXAoFdYzU-Vzjy6jFX8J-5">
          <mxGeometry relative="1" as="geometry">
            <Array as="points">
              <mxPoint x="580" y="111" />
              <mxPoint x="580" y="21" />
            </Array>
          </mxGeometry>
        </mxCell>
        <mxCell id="ynjoZDTBO19sQLlADJZk-2" style="edgeStyle=none;curved=1;rounded=0;orthogonalLoop=1;jettySize=auto;html=1;exitX=1;exitY=0.5;exitDx=0;exitDy=0;fontSize=12;startSize=8;endSize=8;entryX=0;entryY=0.5;entryDx=0;entryDy=0;" edge="1" parent="1" source="rXAoFdYzU-Vzjy6jFX8J-4" target="rXAoFdYzU-Vzjy6jFX8J-6">
          <mxGeometry relative="1" as="geometry">
            <mxPoint x="600" y="130" as="targetPoint" />
          </mxGeometry>
        </mxCell>
        <mxCell id="ynjoZDTBO19sQLlADJZk-3" style="edgeStyle=none;curved=0;rounded=0;orthogonalLoop=1;jettySize=auto;html=1;exitX=1;exitY=0.5;exitDx=0;exitDy=0;entryX=0;entryY=0.5;entryDx=0;entryDy=0;fontSize=12;startSize=8;endSize=8;" edge="1" parent="1" source="rXAoFdYzU-Vzjy6jFX8J-4" target="rXAoFdYzU-Vzjy6jFX8J-7">
          <mxGeometry relative="1" as="geometry">
            <Array as="points">
              <mxPoint x="580" y="111" />
              <mxPoint x="580" y="201" />
            </Array>
          </mxGeometry>
        </mxCell>
        <mxCell id="rXAoFdYzU-Vzjy6jFX8J-4" value="Manager" style="rounded=1;whiteSpace=wrap;html=1;fillColor=#d5e8d4;strokeColor=#82b366;" parent="1" vertex="1">
          <mxGeometry x="362" y="81" width="120" height="60" as="geometry" />
        </mxCell>
        <mxCell id="rXAoFdYzU-Vzjy6jFX8J-5" value="Exporter" style="rounded=1;whiteSpace=wrap;html=1;fillColor=#e1d5e7;strokeColor=#9673a6;" parent="1" vertex="1">
          <mxGeometry x="618" y="-9" width="120" height="60" as="geometry" />
        </mxCell>
        <mxCell id="rXAoFdYzU-Vzjy6jFX8J-6" value="Exporter" style="rounded=1;whiteSpace=wrap;html=1;fillColor=#e1d5e7;strokeColor=#9673a6;" parent="1" vertex="1">
          <mxGeometry x="618" y="81" width="120" height="60" as="geometry" />
        </mxCell>
        <mxCell id="rXAoFdYzU-Vzjy6jFX8J-7" value="Exporter" style="rounded=1;whiteSpace=wrap;html=1;fillColor=#e1d5e7;strokeColor=#9673a6;" parent="1" vertex="1">
          <mxGeometry x="618" y="171" width="120" height="60" as="geometry" />
        </mxCell>
        <mxCell id="rXAoFdYzU-Vzjy6jFX8J-8" value="Filesystem" style="shape=cylinder3;whiteSpace=wrap;html=1;boundedLbl=1;backgroundOutline=1;size=15;fillColor=#f8cecc;strokeColor=#b85450;" parent="1" vertex="1">
          <mxGeometry x="-120" y="201" width="120" height="80" as="geometry" />
        </mxCell>
        <mxCell id="rXAoFdYzU-Vzjy6jFX8J-9" style="edgeStyle=none;curved=1;rounded=0;orthogonalLoop=1;jettySize=auto;html=1;exitX=0.5;exitY=1;exitDx=0;exitDy=0;entryX=0.5;entryY=0;entryDx=0;entryDy=0;entryPerimeter=0;fontSize=12;startSize=8;endSize=8;" parent="1" source="rXAoFdYzU-Vzjy6jFX8J-2" target="rXAoFdYzU-Vzjy6jFX8J-8" edge="1">
          <mxGeometry relative="1" as="geometry" />
        </mxCell>
        <mxCell id="rXAoFdYzU-Vzjy6jFX8J-10" value="watches for changes" style="edgeLabel;html=1;align=center;verticalAlign=middle;resizable=0;points=[];fontSize=12;" parent="rXAoFdYzU-Vzjy6jFX8J-9" vertex="1" connectable="0">
          <mxGeometry x="-0.2667" y="-1" relative="1" as="geometry">
            <mxPoint as="offset" />
          </mxGeometry>
        </mxCell>
        <mxCell id="rXAoFdYzU-Vzjy6jFX8J-23" value="sql.Statement" style="edgeLabel;html=1;align=center;verticalAlign=middle;resizable=0;points=[];fontSize=12;" parent="1" vertex="1" connectable="0">
          <mxGeometry x="530" y="111" as="geometry" />
        </mxCell>
      </root>
    </mxGraphModel>
  </diagram>
</mxfile>
